<svg width="121" height="120" viewBox="0 0 121 120" fill="none" xmlns="http://www.w3.org/2000/svg">
<path fill-rule="evenodd" clip-rule="evenodd" d="M48.5 29.1871C48.5 25.162 43.8442 22.9245 40.7014 25.4388L26.3014 36.9588C25.1629 37.8698 24.5 39.2488 24.5 40.7071V79.2931C24.5 80.7511 25.1629 82.1301 26.3014 83.0412L45.5014 98.4012C47.2544 99.8035 49.7456 99.8035 51.4986 98.4012L67.8147 85.348C70.2166 83.4266 70.2166 79.7733 67.8147 77.8519L50.3014 63.8412C49.1629 62.9301 48.5 61.5511 48.5 60.0931V29.1871Z" fill="url(#paint0_linear_175_3403)"/>
<path d="M72.5 40.7069C72.5 39.2489 73.1629 37.8698 74.3014 36.9588L88.7014 25.4388C91.8442 22.9245 96.5 25.1621 96.5 29.1869V79.2931C96.5 80.7511 95.8371 82.1301 94.6986 83.0412L80.2986 94.5612C77.1558 97.0754 72.5 94.8379 72.5 90.8131V40.7069Z" fill="white"/>
<defs>
<linearGradient id="paint0_linear_175_3403" x1="19.7" y1="73.2" x2="45.5379" y2="100.139" gradientUnits="userSpaceOnUse">
<stop stop-color="white"/>
<stop offset="1" stop-color="white" stop-opacity="0.4"/>
</linearGradient>
</defs>
</svg>
